<svg width="182" height="71" viewBox="0 0 182 71" fill="none" xmlns="http://www.w3.org/2000/svg">
  <path d="M34.9 13.2L24.9 5L14.9 13.2V18.4H19.9L24.9 14.3L29.9 18.4H34.9V13.2Z" fill="#A435F0"/>
  <path d="M22.4 62.2C17.7 62.2 14 60.9 11.4 58.2C8.8 55.6 7.5 51.7 7.5 46.7V26.4H20V45.2C20 49.5 21.7 51.7 25 51.7C28.4 51.7 30.1 49.5 30.1 45.2V26.4H42.4V46.7C42.4 51.7 41.1 55.6 38.5 58.2C35.9 60.9 32.2 62.2 27.5 62.2H22.4Z" fill="black"/>
  <path d="M63.8 62.2C59.7 62.2 56.2 61.4 53.4 59.7C50.6 58 48.4 55.7 46.9 52.6C45.4 49.6 44.7 46.1 44.7 42C44.7 38 45.5 34.4 47 31.3C48.6 28.3 50.7 25.9 53.5 24.2C56.4 22.5 59.5 21.7 63 21.7C66 21.7 68.7 22.3 71 23.6C73.2 24.9 74.9 26.8 76 29.1V6.8H88.1V61.5H76.6V56.8C75.5 58.5 73.9 59.9 71.8 60.9C69.7 61.8 67 62.2 63.8 62.2ZM67.1 52.4C69.7 52.4 71.8 51.5 73.5 49.8C75.1 48.1 76 45.5 76 42C76 38.6 75.1 35.9 73.5 34.2C71.8 32.5 69.7 31.6 67.1 31.6C64.5 31.6 62.4 32.5 60.7 34.2C59 35.9 58.2 38.5 58.2 42C58.2 45.5 59 48.1 60.7 49.8C62.4 51.5 64.5 52.4 67.1 52.4Z" fill="black"/>
  <path d="M113.8 62.2C109.3 62.2 105.4 61.4 102.1 59.8C98.8 58.1 96.3 55.8 94.5 52.8C92.8 49.8 91.9 46.3 91.9 42.2C91.9 38.2 92.8 34.6 94.5 31.6C96.3 28.6 98.7 26.2 101.8 24.4C104.9 22.6 108.5 21.7 112.6 21.7C116.5 21.7 120 22.5 123 24.1C126 25.7 128.3 28 129.9 31C131.5 34 132.3 37.5 132.3 41.6V44.9H104.1C104.5 47.5 105.6 49.4 107.3 50.8C109 52.1 111.2 52.8 113.8 52.8C115.9 52.8 117.8 52.5 119.5 51.8C121.2 51.1 123 50.1 124.8 48.8L129.5 56.5C127.3 58.3 124.8 59.7 121.9 60.7C119 61.7 116.3 62.2 113.8 62.2ZM112.1 30.4C109.9 30.4 108.1 31.1 106.6 32.4C105.1 33.7 104.3 35.5 104 37.9H121.6C121.2 35.4 120.5 33.6 119.2 32.3C117.8 31 115.5 30.4 112.1 30.4Z" fill="black"/>
  <path d="M147.4 62.2C142.7 62.2 139 60.9 136.4 58.2C133.8 55.6 132.5 51.7 132.5 46.7V22.4H144.8V45.2C144.8 49.5 146.6 51.7 150 51.7C151.8 51.7 153.3 51 154.5 49.6C155.7 48.2 156.3 46.1 156.3 43.3V22.4H168.6V61.5H156.8V55.8C155.6 57.9 154 59.5 151.9 60.6C149.8 61.7 148.3 62.2 147.4 62.2Z" fill="black"/>
  <path d="M173.3 70.2L166.1 61.3C167.7 60.4 169 59.5 170 58.6C171 57.8 171.8 56.8 172.5 55.8L157.7 22.4H170.6L178.9 43.5L187 22.4H199.4L184.3 57.3C182.8 60.9 180.9 63.8 178.7 66.1C176.4 68.4 174.6 69.8 173.3 70.2Z" fill="black"/>
</svg>
